<svg xmlns="http://www.w3.org/2000/svg" width="108" height="24"><path fill="currentColor" d="M1 23h8.9v-.4c-3.2-.4-4.2-1.8-4.2-5V2.9h.2L14.2 23h1.2l7.5-20.2h.1v17.9c0 1.3-.8 1.7-3.1 1.8v.5h11v-.4c-2.7-.1-3.3-.6-3.3-1.8V3c0-1.2.6-1.8 3.3-1.9V.7h-8.2l-6 16.4h-.2L10 .7H1v.4c2.8.1 3.9 1.5 3.9 3.5v13c0 3.2-.9 4.6-3.9 5v.4zm51.1.4h1.5V6.1c0-3.2.9-4.5 3.9-5V.7h-9.1v.4c3.2.4 4.4 1.8 4.4 5v10.6L40.5.7H33v.4c2.8.1 3.9 1.8 3.9 3.7v12.7c0 3.2-.9 4.6-3.9 5v.5h9v-.4c-3.3-.4-4.3-1.8-4.3-5V4.7l14.4 18.7zm11.5-.4h12.1v-.4c-2.8-.1-3.7-.6-3.7-1.8V1.3h.8c2.5 0 4.4 2.5 6.6 6.8l.5-.1-.2-7.3H59.6L59.4 8l.5.1c2.3-4.4 4.2-6.8 6.7-6.8h.8v19.5c0 1.2-.9 1.8-3.7 1.8-.1 0-.1.4-.1.4zm38.5.4h1.5V6.1c0-3.2.9-4.5 3.9-5V.7h-9.1v.4c3.2.4 4.4 1.8 4.4 5v10.6L90.5.7H83v.4c2.8.1 3.9 1.8 3.9 3.7v12.7c0 3.2-.9 4.6-3.9 5v.5h9v-.4c-3.3-.4-4.3-1.8-4.3-5V4.7l14.4 18.7z"/></svg>